<mxfile host="app.diagrams.net" agent="Mozilla/5.0 (Windows NT 10.0; Win64; x64) AppleWebKit/537.36 (KHTML, like Gecko) Chrome/128.0.0.0 Safari/537.36" version="24.7.8" pages="2">
  <diagram name="Page-1" id="4rGjodRsTPPC2vz77WWb">
    <mxGraphModel dx="1434" dy="818" grid="1" gridSize="10" guides="1" tooltips="1" connect="1" arrows="1" fold="1" page="1" pageScale="1" pageWidth="850" pageHeight="1100" math="0" shadow="0">
      <root>
        <mxCell id="0" />
        <mxCell id="1" parent="0" />
        <mxCell id="UDhdAV5JtU_Sa8sB4PR5-5" value="" style="ellipse;html=1;shape=startState;fillColor=#000000;strokeColor=#ff0000;" parent="1" vertex="1">
          <mxGeometry x="85" y="426" width="30" height="30" as="geometry" />
        </mxCell>
        <mxCell id="UDhdAV5JtU_Sa8sB4PR5-6" value="" style="edgeStyle=orthogonalEdgeStyle;html=1;verticalAlign=bottom;endArrow=open;endSize=8;strokeColor=#ff0000;rounded=0;" parent="1" source="UDhdAV5JtU_Sa8sB4PR5-5" target="UDhdAV5JtU_Sa8sB4PR5-8" edge="1">
          <mxGeometry relative="1" as="geometry">
            <mxPoint x="70" y="510" as="targetPoint" />
          </mxGeometry>
        </mxCell>
        <mxCell id="UDhdAV5JtU_Sa8sB4PR5-7" value="USER" style="text;align=center;fontStyle=1;verticalAlign=middle;spacingLeft=3;spacingRight=3;strokeColor=none;rotatable=0;points=[[0,0.5],[1,0.5]];portConstraint=eastwest;html=1;" parent="1" vertex="1">
          <mxGeometry x="75" y="400" width="50" height="26" as="geometry" />
        </mxCell>
        <mxCell id="UDhdAV5JtU_Sa8sB4PR5-8" value="Input masukan jenis hama,&lt;div&gt;masukan kota, pilih jenis kebutuhan&lt;/div&gt;&lt;div&gt;&lt;br&gt;&lt;/div&gt;" style="rounded=1;whiteSpace=wrap;html=1;arcSize=40;fontColor=#000000;fillColor=#ffffc0;strokeColor=#ff0000;" parent="1" vertex="1">
          <mxGeometry x="10" y="480" width="180" height="100" as="geometry" />
        </mxCell>
        <mxCell id="UDhdAV5JtU_Sa8sB4PR5-9" value="" style="edgeStyle=orthogonalEdgeStyle;html=1;verticalAlign=bottom;endArrow=open;endSize=8;strokeColor=#ff0000;rounded=0;" parent="1" source="UDhdAV5JtU_Sa8sB4PR5-8" target="UDhdAV5JtU_Sa8sB4PR5-10" edge="1">
          <mxGeometry relative="1" as="geometry">
            <mxPoint x="75" y="630" as="targetPoint" />
          </mxGeometry>
        </mxCell>
        <mxCell id="UDhdAV5JtU_Sa8sB4PR5-10" value="Send data" style="rounded=1;whiteSpace=wrap;html=1;arcSize=40;fontColor=#000000;fillColor=#ffffc0;strokeColor=#ff0000;" parent="1" vertex="1">
          <mxGeometry x="40" y="680" width="120" height="40" as="geometry" />
        </mxCell>
        <mxCell id="UDhdAV5JtU_Sa8sB4PR5-11" value="" style="edgeStyle=orthogonalEdgeStyle;html=1;verticalAlign=bottom;endArrow=open;endSize=8;strokeColor=#ff0000;rounded=0;entryX=0;entryY=0.5;entryDx=0;entryDy=0;" parent="1" source="UDhdAV5JtU_Sa8sB4PR5-10" target="UDhdAV5JtU_Sa8sB4PR5-14" edge="1">
          <mxGeometry relative="1" as="geometry">
            <mxPoint x="75" y="750" as="targetPoint" />
          </mxGeometry>
        </mxCell>
        <mxCell id="UDhdAV5JtU_Sa8sB4PR5-12" value="SERVER" style="text;align=center;fontStyle=1;verticalAlign=middle;spacingLeft=3;spacingRight=3;strokeColor=none;rotatable=0;points=[[0,0.5],[1,0.5]];portConstraint=eastwest;html=1;" parent="1" vertex="1">
          <mxGeometry x="275" y="400" width="60" height="26" as="geometry" />
        </mxCell>
        <mxCell id="UDhdAV5JtU_Sa8sB4PR5-14" value="Send data ke server" style="rounded=1;whiteSpace=wrap;html=1;arcSize=40;fontColor=#000000;fillColor=#ffffc0;strokeColor=#ff0000;" parent="1" vertex="1">
          <mxGeometry x="260" y="550" width="120" height="40" as="geometry" />
        </mxCell>
        <mxCell id="UDhdAV5JtU_Sa8sB4PR5-15" value="" style="edgeStyle=orthogonalEdgeStyle;html=1;verticalAlign=bottom;endArrow=open;endSize=8;strokeColor=#ff0000;rounded=0;" parent="1" edge="1">
          <mxGeometry relative="1" as="geometry">
            <mxPoint x="699.8299999999999" y="850" as="targetPoint" />
            <mxPoint x="699.8299999999999" y="610" as="sourcePoint" />
          </mxGeometry>
        </mxCell>
        <mxCell id="UDhdAV5JtU_Sa8sB4PR5-16" value="" style="ellipse;html=1;shape=endState;fillColor=#000000;strokeColor=#ff0000;" parent="1" vertex="1">
          <mxGeometry x="685" y="850" width="30" height="30" as="geometry" />
        </mxCell>
        <mxCell id="UAwRlhiWpnlL1D8LSpwE-2" value="&lt;b style=&quot;font-size: 14px;&quot;&gt;&lt;font style=&quot;font-size: 14px;&quot;&gt;Worker&lt;/font&gt;&lt;/b&gt;" style="text;html=1;align=center;verticalAlign=middle;resizable=0;points=[];autosize=1;strokeColor=none;fillColor=none;fontSize=14;" vertex="1" parent="1">
          <mxGeometry x="470" y="396" width="70" height="30" as="geometry" />
        </mxCell>
        <mxCell id="UAwRlhiWpnlL1D8LSpwE-3" value="Send data ke Worker untuk di siapkan" style="rounded=1;whiteSpace=wrap;html=1;arcSize=40;fontColor=#000000;fillColor=#ffffc0;strokeColor=#ff0000;" vertex="1" parent="1">
          <mxGeometry x="440" y="550" width="120" height="40" as="geometry" />
        </mxCell>
        <mxCell id="UAwRlhiWpnlL1D8LSpwE-5" value="" style="html=1;verticalAlign=bottom;endArrow=open;endSize=8;strokeColor=#ff0000;rounded=0;exitX=1;exitY=0.5;exitDx=0;exitDy=0;entryX=0;entryY=0.5;entryDx=0;entryDy=0;" edge="1" parent="1" source="UDhdAV5JtU_Sa8sB4PR5-14" target="UAwRlhiWpnlL1D8LSpwE-3">
          <mxGeometry relative="1" as="geometry">
            <mxPoint x="570" y="580" as="targetPoint" />
            <mxPoint x="450" y="600" as="sourcePoint" />
          </mxGeometry>
        </mxCell>
        <mxCell id="UAwRlhiWpnlL1D8LSpwE-6" value="Database" style="text;html=1;align=center;verticalAlign=middle;resizable=0;points=[];autosize=1;strokeColor=none;fillColor=none;fontSize=15;fontStyle=1" vertex="1" parent="1">
          <mxGeometry x="670" y="396" width="90" height="30" as="geometry" />
        </mxCell>
        <mxCell id="UAwRlhiWpnlL1D8LSpwE-7" value="Send Ke databsae untuk disimpan kemudian di kirim ke penerima" style="rounded=1;whiteSpace=wrap;html=1;arcSize=40;fontColor=#000000;fillColor=#ffffc0;strokeColor=#ff0000;" vertex="1" parent="1">
          <mxGeometry x="620" y="525" width="160" height="90" as="geometry" />
        </mxCell>
        <mxCell id="UAwRlhiWpnlL1D8LSpwE-8" value="" style="html=1;verticalAlign=bottom;endArrow=open;endSize=8;strokeColor=#ff0000;rounded=0;" edge="1" parent="1" source="UAwRlhiWpnlL1D8LSpwE-3" target="UAwRlhiWpnlL1D8LSpwE-7">
          <mxGeometry relative="1" as="geometry">
            <mxPoint x="620" y="569.76" as="targetPoint" />
            <mxPoint x="560" y="569.76" as="sourcePoint" />
            <Array as="points">
              <mxPoint x="590" y="569.76" />
            </Array>
          </mxGeometry>
        </mxCell>
      </root>
    </mxGraphModel>
  </diagram>
  <diagram id="NpvDxgAQevlgaFgcMFma" name="Page-2">
    <mxGraphModel dx="1434" dy="818" grid="1" gridSize="10" guides="1" tooltips="1" connect="1" arrows="1" fold="1" page="1" pageScale="1" pageWidth="850" pageHeight="1100" math="0" shadow="0">
      <root>
        <mxCell id="0" />
        <mxCell id="1" parent="0" />
      </root>
    </mxGraphModel>
  </diagram>
</mxfile>
